<svg version="1.0" xmlns="http://www.w3.org/2000/svg"
 width="443.000000pt" height="254.000000pt" viewBox="0 0 443.000000 254.000000"
 preserveAspectRatio="xMidYMid meet">
    <g transform="translate(0.000000,254.000000) scale(0.100000,-0.100000)"
    fill="#000000" stroke="none">
    <path d="M0 1525 l0 -1015 235 0 235 0 -2 815 c-2 448 -1 815 2 815 3 0 94
    -366 201 -812 l195 -813 229 -3 230 -2 194 817 c107 450 198 822 203 828 4 5
    8 -363 8 -818 l0 -827 235 0 235 0 0 1015 0 1015 -384 0 -383 0 -6 -27 c-13
    -64 -318 -1400 -324 -1418 -6 -20 -6 -20 -13 0 -4 11 -81 341 -171 733 l-164
    712 -377 0 -378 0 0 -1015z"/>
    <path d="M2360 1526 l0 -1016 235 0 235 0 2 803 3 802 200 -1 c147 0 224 -5
    289 -18 256 -50 426 -165 525 -355 74 -143 103 -280 102 -491 0 -407 -164
    -673 -476 -775 -170 -55 -145 -55 -1877 -55 l-1598 0 0 -210 0 -210 1610 0
    c1070 0 1643 4 1708 11 342 37 586 143 783 338 267 267 379 708 303 1201 -50
    326 -188 572 -419 743 -99 74 -187 118 -323 164 -210 70 -258 75 -809 80
    l-493 5 0 -1016z"/>
    </g>
</svg>
